# AST/ASF file generated using VICON BodyLanguage
# -----------------------------------------------
:version 1.10
:name VICON
:units
  mass 1.0
  length 0.45
  angle deg
:documentation
   .ast/.asf automatically generated from VICON data using
   VICON BodyBuilder and BodyLanguage model FoxedUp or BRILLIANT.MOD
:root
   order TX TY TZ RX RY RZ
   axis XYZ
   position 0 0 0  
   orientation 0 0 0 
:bonedata
  begin
     id 1 
     name lhipjoint
     direction 0.645893 -0.654526 0.392961 
     length 2.38111 
     axis 0 0 0  XYZ
  end
  begin
     id 2 
     name lfemur
     direction 0.34202 -0.939693 0  
     length 6.6822  
     axis 0 0 20  XYZ
    dof rx ry rz
    limits (-160.0 20.0)
           (-70.0 70.0)
           (-60.0 70.0)
  end
  begin
     id 3 
     name ltibia
     direction 0.34202 -0.939693 0   
     length 6.93904   
     axis 0 0 20   XYZ
    dof rx
    limits (-10.0 170.0)
  end
  begin
     id 4 
     name lfoot
     direction 0.0694967 -0.190941 0.979138   
     length 2.13616   
     axis -90 7.62852e-016 20   XYZ
    dof rx rz
    limits (-45.0 90.0)
           (-70.0 20.0)
  end
  begin
     id 5 
     name ltoes
     direction 1.535e-011 -4.2202e-011 1   
     length 1.07536   
     axis -90 7.62852e-016 20   XYZ
    dof rx
    limits (-90.0 20.0)
  end
  begin
     id 6 
     name rhipjoint
     direction -0.700219 -0.612087 0.367481   
     length 2.54621  
     axis 0 0 0  XYZ 
  end
  begin
     id 7 
     name rfemur
     direction -0.34202 -0.939693 0   
     length 6.55353   
     axis 0 0 -20   XYZ
    dof rx ry rz
    limits (-160.0 20.0)
           (-70.0 70.0)
           (-70.0 60.0)
  end
  begin
     id 8 
     name rtibia
     direction -0.34202 -0.939693 0   
     length 6.8736   
     axis 0 0 -20   XYZ
    dof rx
    limits (-10.0 170.0)
 end
 begin
     id 9 
     name rfoot
     direction -0.0679995 -0.186827 0.980037   
     length 2.1218  
     axis -90 -7.62852e-016 -20   XYZ
    dof rx rz
    limits (-45.0 90.0)
           (-20.0 70.0)
  end
  begin
     id 10 
     name rtoes
     direction -1.53589e-011 -4.21772e-011 1   
     length 1.06864   
     axis -90 -7.62852e-016 -20   XYZ
    dof rx
    limits (-90.0 20.0)
  end
  begin
     id 11 
     name lowerback
     direction -0.0416607 0.996347 -0.0745409   
     length 2.12205   
     axis 0 0 0   XYZ
    dof rx ry rz
    limits (-20.0 45.0)
           (-30.0 30.0)
           (-30.0 30.0)
  end
  begin
     id 12 
     name upperback
     direction -0.000153993 0.999276 -0.0380568   
     length 2.12759   
     axis 0 0 0   XYZ
    dof rx ry rz
    limits (-20.0 45.0)
           (-30.0 30.0)
           (-30.0 30.0)
  end
  begin
     id 13 
     name thorax
     direction 0.0187671 0.999821 -0.00241421   
     length 2.13704   
     axis 0 0 0   XYZ
    dof rx ry rz
    limits (-20.0 45.0)
           (-30.0 30.0)
           (-30.0 30.0)
  end
  begin
     id 14 
     name lowerneck
     direction 0.0268157 0.964865 0.261374   
     length 1.65253   
     axis 0 0 0   XYZ
    dof rx ry rz
    limits (-20.0 45.0)
           (-30.0 30.0)
           (-30.0 30.0)
  end
  begin
     id 15 
     name upperneck
     direction 0.00263774 0.939908 -0.341418   
     length 1.72375   
     axis 0 0 0   XYZ
    dof rx ry rz
    limits (-20.0 45.0)
           (-30.0 30.0)
           (-30.0 30.0)
  end
  begin
     id 16
     name head
     direction -0.00526001 0.989001 -0.147818  
     length 1.74878  
     axis 0 0 0   XYZ
    dof rx ry rz
    limits (-20.0 45.0)
           (-30.0 30.0)
           (-30.0 30.0)
  end
  begin
     id 17 
     name lclavicle
     direction 0.881214 0.461162 -0.103884  
     length 3.25108  
     axis 0 0 0   XYZ
    dof ry rz
    limits (-20.0 10.0)
           (0.0 20.0)
  end
  begin
     id 18 
     name lhumerus
     direction 1 -4.4899e-011 3.38092e-027   
     length 4.87408   
     axis 180 -30 -90   XYZ
    dof rx ry rz
    limits (-60.0 90.0)
           (-90.0 90.0)
           (-90.0 90.0)
  end
  begin
     id 19
     name lradius
     direction 1 -4.48931e-011 9.96288e-027   
     length 2.76729   
     axis 180 -30 -90   XYZ
    dof rx
    limits (-10.0 170.0)
  end
  begin
     id 20
     name lwrist
     direction 1 -4.4896e-011 1.50617e-026   
     length 1.38364   
     axis -9.31234e-015 90 90   XYZ
    dof ry
    limits (-180.0 0.0)
 end
  begin
     id 21 
     name lhand
     direction 1 -4.49038e-011 3.01286e-026   
     length 0.98922   
     axis -1.92217e-014 90 90   XYZ
    dof rx rz
    limits (-90.0 90.0)
           (-45.0 45.0)
  end
  begin
     id 22 
     name lfingers
     direction 1 -4.49051e-011 6.02588e-026   
     length 0.797535   
     axis -3.84436e-014 90 90   XYZ
    dof rx
    limits (0.0 90.0)
  end
  begin
     id 23
     name lthumb
     direction 0.707107 -6.34901e-011 0.707107   
     length 1.14511   
     axis -90 45 2.19363e-014   XYZ
    dof rx rz
    limits (-45.0 45.0)
           (-45.0 45.0)
  end
  begin
     id 24 
     name rclavicle
     direction -0.893894 0.441652 -0.0767889   
     length 3.29361  
     axis 0 0 0   XYZ 
    dof ry rz
    limits (-10.0 20.0)
           (-20.0 0.0)
  end
  begin
     id 25 
     name rhumerus
     direction -1 -4.48945e-011 8.0491e-028  
     length 4.71404   
     axis 180 30 90   XYZ
    dof rx ry rz
    limits (-90.0 60.0)
           (-90.0 90.0)
           (-90.0 90.0)
  end
  begin
     id 26 
     name rradius
     direction -1 -4.48986e-011 9.27795e-027   
     length 2.83468   
     axis 180 30 90   XYZ
    dof rx
    limits (-10.0 170.0)
  end
  begin
     id 27 
     name rwrist
     direction -1 -4.49029e-011 1.5064e-026   
     length 1.41734   
     axis -9.31234e-015 -90 -90   XYZ
    dof ry
    limits (-180.0 0.0)
  end
  begin
     id 28
     name rhand
     direction -1 -4.48857e-011 3.01165e-026   
     length 0.868195   
     axis -1.92217e-014 -90 -90   XYZ
    dof rx rz
    limits (-90.0 90.0)
           (-45.0 45.0)
  end
  begin
     id 29
     name rfingers
     direction -1 -4.49048e-011 6.02585e-026   
     length 0.699961   
     axis -3.84436e-014 -90 -90   XYZ
    dof rx
    limits (0.0 90.0)
  end
  begin
     id 30
     name rthumb
     direction -0.707107 -6.34854e-011 0.707107   
     length 1.00501   
     axis -90 -45 -2.19363e-014   XYZ
    dof rx rz
    limits (-45.0 45.0)
           (-45.0 45.0)
  end
:hierarchy
  begin
    root lhipjoint rhipjoint lowerback
    lhipjoint lfemur
    lfemur ltibia
    ltibia lfoot
    lfoot ltoes
    rhipjoint rfemur
    rfemur rtibia
    rtibia rfoot
    rfoot rtoes
    lowerback upperback
    upperback thorax
    thorax lowerneck lclavicle rclavicle
    lowerneck upperneck
    upperneck head
    lclavicle lhumerus
    lhumerus lradius
    lradius lwrist
    lwrist lhand lthumb
    lhand lfingers
    rclavicle rhumerus
    rhumerus rradius
    rradius rwrist
    rwrist rhand rthumb
    rhand rfingers
  end

#!OML:ASF H:\ManfredObstacles\Project 1\Capture day 2\Session 1\male.ASF
:FULLY-SPECIFIED
:DEGREES
17
root 0.847277 15.3119 21.2324 -173.454 -1.94402 -186.208
lowerback 1.06031 -0.491257 -9.63077
upperback 1.67359 -0.939516 -2.9978
thorax 1.23124 -0.684769 2.28002
lowerneck -34.8397 -0.344545 0.66088
upperneck 35.5078 -3.77109 3.25019
head 19.737 -1.21731 0.356293
rclavicle 2.28602e-015 1.82882e-014
rhumerus -63.3189 8.412 -94.5251
rradius 91.352
rwrist 6.52648
rhand -18.811 -1.7021
rfingers 7.12502
rthumb 7.48763 -31.5496
lclavicle 2.28602e-015 1.82882e-014
lhumerus -43.3258 -33.1364 99.2445
lradius 101.426
lwrist -19.9966
lhand -14.7871 2.64212
lfingers 7.12502
lthumb 11.3701 32.3139
rfemur -24.1714 -3.55376 14.7359
rtibia 83.0764
rfoot 4.34391 -18.3097
rtoes -17.5162
lfemur -15.6896 -3.94916 -29.286
ltibia 40.9933
lfoot -2.20006 24.3258
ltoes -10.7089
18
root 0.845685 15.3392 20.9531 -173.257 -1.96032 -186.02
lowerback 1.14028 -0.683458 -9.21395
upperback 1.66135 -1.21105 -3.14853
thorax 1.18964 -0.814874 1.89506
lowerneck -34.7456 -0.185824 1.21105
upperneck 35.3948 -3.76495 3.04924
head 19.6275 -1.17073 0.164812
rclavicle 1.88845e-015 3.26007e-014
rhumerus -64.4085 7.41631 -94.2134
rradius 91.74
rwrist 5.85308
rhand -18.516 -1.68653
rfingers 7.12502
rthumb 7.77228 -31.5237
lclavicle 1.88845e-015 3.26007e-014
lhumerus -42.3983 -34.0099 98.8724
lradius 101.835
lwrist -20.037
lhand -14.8174 2.5445
lfingers 7.12502
lthumb 11.3409 32.2179
rfemur -26.4177 -3.41147 15.043
rtibia 83.087
rfoot 3.28701 -18.7704
rtoes -17.8262
lfemur -14.4751 -4.10448 -29.1005
ltibia 40.4501
lfoot -1.78771 24.1904
ltoes -11.366
19
root 0.846217 15.3782 20.6707 -173.049 -1.96696 -185.921
lowerback 1.21298 -0.870023 -8.91697
upperback 1.62206 -1.47843 -3.30241
thorax 1.1217 -0.943843 1.57384
lowerneck -34.5831 -1.19386 2.57958
upperneck 35.3859 -3.18346 2.18644
head 19.4999 -0.0496283 -0.038678
rclavicle -1.07344e-014 -1.59028e-015
rhumerus -65.5561 6.48041 -93.9289
rradius 92.2193
rwrist 5.26328
rhand -18.2552 -1.65714
rfingers 7.12502
rthumb 8.02402 -31.4848
lclavicle -1.07344e-014 -1.59028e-015
lhumerus -41.6277 -34.9156 98.5528
lradius 102.339
lwrist -19.9752
lhand -14.8073 2.56707
lfingers 7.12502
lthumb 11.3506 32.2399
rfemur -28.5601 -3.23019 15.2482
rtibia 82.6999
rfoot 2.31569 -19.1488
rtoes -18.224
lfemur -13.1391 -4.32691 -29.018
ltibia 39.6301
lfoot -1.15379 23.8868
ltoes -11.8281
20
root 0.850067 15.4287 20.3842 -172.815 -1.9795 -185.917
lowerback 1.25779 -1.23952 -8.87111
upperback 1.58469 -1.97539 -3.26572
thorax 1.10383 -1.18776 1.58609
lowerneck -34.529 -0.866867 2.90814
upperneck 35.3047 -2.7597 1.87731
head 19.4228 0.0941512 -0.14091
rclavicle 1.37161e-014 7.95139e-016
rhumerus -66.6203 6.27027 -93.5466
rradius 92.7049
rwrist 4.78084
rhand -18.011 -1.56976
rfingers 7.12502
rthumb 8.25971 -31.3883
lclavicle 1.37161e-014 7.95139e-016
lhumerus -40.8131 -35.2364 98.2833
lradius 102.887
lwrist -19.8636
lhand -14.7973 2.70152
lfingers 7.12502
lthumb 11.3602 32.3738
rfemur -30.5791 -3.02173 15.3503
rtibia 81.9258
rfoot 1.41875 -19.4732
rtoes -18.5489
lfemur -11.7122 -4.61088 -29.0332
ltibia 38.559
lfoot -0.318745 23.3819
ltoes -12.1148
21
root 0.857541 15.4899 20.0933 -172.548 -1.99583 -185.984
lowerback 1.26317 -1.68268 -8.99538
upperback 1.47979 -2.56601 -3.14988
thorax 1.05843 -1.4753 1.77262
lowerneck -34.3346 -0.471958 3.18391
upperneck 35.2412 -2.16078 1.52317
head 19.3278 0.291861 -0.209983
rclavicle 1.0138e-014 7.15625e-015
rhumerus -67.7487 6.34829 -93.1482
rradius 93.1934
rwrist 4.40814
rhand -17.8008 -1.44813
rfingers 7.12502
rthumb 8.46261 -31.2586
lclavicle 1.0138e-014 7.15625e-015
lhumerus -40.2108 -35.3328 98.1228
lradius 103.475
lwrist -19.7021
lhand -14.7654 2.90238
lfingers 7.12502
lthumb 11.391 32.573
rfemur -32.4667 -2.78281 15.3742
rtibia 80.7725
rfoot 0.596457 -19.7558
rtoes -18.6954
lfemur -10.2322 -4.91084 -29.1125
ltibia 37.2743
lfoot 0.702241 22.6374
ltoes -12.2631
22
root 0.868659 15.5624 19.7977 -172.232 -2.01219 -186.084
lowerback 1.19269 -2.10279 -9.16866
upperback 1.39285 -3.1184 -3.05017
thorax 1.07703 -1.74804 1.96427
lowerneck -34.2083 -0.0850326 3.50334
upperneck 35.1696 -1.60997 1.17263
head 19.2504 0.478534 -0.297524
rclavicle 4.03533e-014 -6.36111e-015
rhumerus -68.7281 6.34686 -92.7383
rradius 93.6327
rwrist 4.26257
rhand -17.6113 -1.28976
rfingers 7.12502
rthumb 8.64549 -31.0927
lclavicle 4.03533e-014 -6.36111e-015
lhumerus -39.6502 -35.5685 97.9054
lradius 104.063
lwrist -19.5178
lhand -14.719 3.12873
lfingers 7.12502
lthumb 11.4357 32.7968
rfemur -34.2193 -2.5093 15.3609
rtibia 79.2332
rfoot -0.113312 -20.038
rtoes -18.4133
lfemur -8.7501 -5.17878 -29.2052
ltibia 35.8151
lfoot 1.87914 21.6266
ltoes -12.3434
23
root 0.883062 15.6458 19.4969 -171.867 -2.02831 -186.186
lowerback 1.05661 -2.57561 -9.40951
upperback 1.28057 -3.72938 -2.88078
thorax 1.12701 -2.04896 2.25818
lowerneck -34.1191 0.382827 3.82677
upperneck 35.1163 -0.92353 0.785025
head 19.2013 0.712101 -0.36911
rclavicle -4.27387e-014 -2.38542e-014
rhumerus -69.6294 6.54606 -92.3065
rradius 94.0272
rwrist 4.27058
rhand -17.4224 -1.16205
rfingers 7.12502
rthumb 8.82777 -30.9574
lclavicle -4.27387e-014 -2.38542e-014
lhumerus -39.2062 -35.6419 97.7216
lradius 104.636
lwrist -19.3956
lhand -14.7053 3.34453
lfingers 7.12502
lthumb 11.449 33.0119
rfemur -35.8233 -2.19959 15.3415
rtibia 77.3093
rfoot -0.705063 -20.3389
rtoes -18.138
lfemur -7.29169 -5.3877 -29.2704
ltibia 34.2171
lfoot 3.21661 20.3407
ltoes -12.3839
24
root 0.899488 15.7391 19.1916 -171.437 -2.00788 -186.254
lowerback 0.837871 -3.02191 -9.61347
upperback 1.15554 -4.29443 -2.71385
thorax 1.21039 -2.3273 2.52108
lowerneck -34.0479 0.834292 4.17374
upperneck 35.0669 -0.285443 0.418657
head 19.166 0.935823 -0.446225
rclavicle 3.8763e-014 7.31528e-014
rhumerus -70.4209 6.68758 -91.886
rradius 94.3736
rwrist 4.427
rhand -17.2459 -1.06312
rfingers 7.12502
rthumb 8.99804 -30.8512
lclavicle 3.8763e-014 7.31528e-014
lhumerus -38.8637 -35.7889 97.515
lradius 105.187
lwrist -19.3073
lhand -14.7057 3.52432
lfingers 7.12502
lthumb 11.4486 33.1917
rfemur -37.3012 -1.8294 15.3368
rtibia 75.0049
rfoot -1.1323 -20.6656
rtoes -17.7824
lfemur -5.90347 -5.50765 -29.2779
ltibia 32.5096
lfoot 4.71962 18.8011
ltoes -12.4037
25
root 0.917406 15.8403 18.8819 -170.953 -1.95369 -186.281
lowerback 0.545702 -3.48888 -9.80611
upperback 1.02219 -4.87277 -2.48725
thorax 1.33966 -2.61199 2.82836
lowerneck -34.0112 1.29312 4.43267
upperneck 35.0176 0.398849 0.0822223
head 19.1473 1.16891 -0.482105
rclavicle 4.31363e-014 2.06736e-014
rhumerus -71.0979 6.96483 -91.4419
rradius 94.6863
rwrist 4.65847
rhand -17.0946 -0.966956
rfingers 7.12502
rthumb 9.14405 -30.7487
lclavicle 4.31363e-014 2.06736e-014
lhumerus -38.5783 -35.8136 97.3144
lradius 105.703
lwrist -19.3454
lhand -14.7065 3.67358
lfingers 7.12502
lthumb 11.4478 33.341
rfemur -38.6342 -1.40786 15.3493
rtibia 72.3361
rfoot -1.37729 -21.0217
rtoes -17.5859
lfemur -4.5847 -5.54856 -29.221
ltibia 30.7119
lfoot 6.3842 17.0529
ltoes -12.3666
